name C:\Users\u0101727\Documents\MyRepositories\paper-ad\predictivesimulations_2d/Results/PredSim_2D/IK_c27.mot
datacolumns 11
datarows 38
range 0.75504491 1.17832767
endheader
time	pelvis_tilt	pelvis_tx	pelvis_ty	hip_flexion_l	hip_flexion_r	knee_angle_l	knee_angle_r	ankle_angle_l	ankle_angle_r	lumbar_extension	
          0.75504491	        -18.71947478	          1.03266392	          0.88657449	         33.76840296	          8.36747158	        -22.70933565	        -36.74738020	          8.90871483	        -14.70020271	         10.31764146	
          0.76648499	        -18.67628773	          1.04773167	          0.88923768	         32.54758377	          9.78621221	        -22.30086709	        -37.80108021	          8.28944524	        -13.04015433	         10.33825043	
          0.77792506	        -18.63019461	          1.06256421	          0.89207445	         31.31167228	         11.25334040	        -21.81604881	        -38.71836951	          7.54769060	        -11.25309589	         10.34806679	
          0.78936514	        -18.58235733	          1.07714953	          0.89507175	         30.07961279	         12.76250636	        -21.28499957	        -39.48097555	          6.68772290	         -9.36700121	         10.34569000	
          0.80080521	        -18.53436476	          1.09147807	          0.89821318	         28.86832280	         14.30815947	        -20.73476825	        -40.07044430	          5.72829549	         -7.40999363	         10.32968855	
          0.81224529	        -18.48825059	          1.10555137	          0.90147542	         27.68770250	         15.88022491	        -20.18940041	        -40.47318128	          4.72903336	         -5.41058906	         10.29956487	
          0.82368536	        -18.44556090	          1.11938046	          0.90480567	         26.54953619	         17.46848647	        -19.68547759	        -40.67347012	          3.81215736	         -3.39747803	         10.25466586	
          0.83512544	        -18.40719569	          1.13300578	          0.90806730	         25.45417552	         19.05762165	        -19.28898329	        -40.65512597	          3.12510361	         -1.40095461	         10.19672568	
          0.84656551	        -18.37605296	          1.14639962	          0.91104262	         24.46440722	         20.62980812	        -18.74069852	        -40.42127310	          3.02197299	          0.54930083	         10.12036701	
          0.85800558	        -18.34956742	          1.15975097	          0.91327780	         23.43203660	         22.15358858	        -18.10648296	        -40.04109025	          3.13336841	          2.42925731	         10.04243641	
          0.86944566	        -18.32495990	          1.17314661	          0.91470190	         22.27593861	         23.63639441	        -17.58769715	        -39.51881638	          2.91415171	          4.21944646	          9.96922301	
          0.88088573	        -18.30592708	          1.18643635	          0.91565044	         21.13436081	         25.09447832	        -17.05859590	        -38.81209096	          2.65431897	          5.90040647	          9.88449218	
          0.89232581	        -18.29404752	          1.19964585	          0.91618964	         20.00793415	         26.50705682	        -16.58047654	        -37.90800410	          2.68175715	          7.45308316	          9.79154185	
          0.90376588	        -18.28979612	          1.21280786	          0.91622632	         18.88233410	         27.86670939	        -16.16802149	        -36.80432476	          2.90074141	          8.86328726	          9.69353982	
          0.91520596	        -18.29676319	          1.22583153	          0.91572960	         17.85458404	         29.17229456	        -15.53314632	        -35.49273491	          3.70276278	         10.12215635	          9.58023682	
          0.92664603	        -18.31602111	          1.23884201	          0.91445115	         16.77328861	         30.41898287	        -14.78192512	        -34.05745324	          4.71394759	         11.23139793	          9.46623605	
          0.93808611	        -18.34321962	          1.25191943	          0.91233302	         15.56286390	         31.62686509	        -14.13779812	        -32.56859924	          4.98571654	         12.20075865	          9.35699987	
          0.94952618	        -18.37860265	          1.26496398	          0.90983209	         14.37810174	         32.80398209	        -13.44545442	        -30.99168159	          4.85498088	         13.03871671	          9.23884804	
          0.96096625	        -18.42416893	          1.27803987	          0.90729690	         13.20427703	         33.93623684	        -12.73886231	        -29.33044280	          4.58170061	         13.75482529	          9.11870095	
          0.97240633	        -18.48034187	          1.29120302	          0.90499489	         12.03942985	         35.01769621	        -12.02211809	        -27.59327271	          4.19175171	         14.36016533	          9.00073874	
          0.98384640	        -18.54763950	          1.30452516	          0.90309981	         10.86199205	         36.03997387	        -11.27231215	        -25.80083685	          3.73380768	         14.86592223	          8.89142249	
          0.99528648	        -18.62464825	          1.31807230	          0.90163507	          9.65673516	         36.99205575	        -10.49557305	        -23.98482641	          3.30266109	         15.28079470	          8.79635361	
          1.00672655	        -18.70843681	          1.33187036	          0.90044890	          8.43327614	         37.86631286	         -9.66478250	        -22.18309435	          2.78396418	         15.61305967	          8.71752594	
          1.01816663	        -18.79276170	          1.34607972	          0.89940199	          7.07804061	         38.64011752	         -9.06455673	        -20.43857531	          2.56349751	         15.86653210	          8.67222291	
          1.02960670	        -18.86873524	          1.36051033	          0.89800495	          5.77133392	         39.34617983	         -8.66004209	        -18.74096118	          2.69583557	         16.05163470	          8.63731065	
          1.04104678	        -18.93505482	          1.37508716	          0.89593833	          4.55086615	         40.00456894	         -8.44890690	        -17.07508556	          2.94134044	         16.17863614	          8.60547360	
          1.05248685	        -18.99369512	          1.38979443	          0.89321805	          3.43413358	         40.62366949	         -8.46592318	        -15.48582136	          2.98769572	         16.25593218	          8.57330635	
          1.06392692	        -19.04774832	          1.40458294	          0.89005250	          2.53324013	         41.21177680	         -8.45309725	        -14.01326720	          2.45159101	         16.29159925	          8.53088280	
          1.07536700	        -19.09814140	          1.41974926	          0.88691929	          1.67732446	         41.73827168	         -8.51892109	        -12.71300212	          1.64460668	         16.28116109	          8.50524552	
          1.08680707	        -19.14165850	          1.43538754	          0.88400080	          0.86116869	         42.20277656	         -8.69257279	        -11.62088089	          0.68601337	         16.22055281	          8.50080323	
          1.09824715	        -19.17505723	          1.45157643	          0.88134021	          0.06393647	         42.59817825	         -8.97780029	        -10.76164021	         -0.32848759	         16.10402016	          8.52374799	
          1.10968722	        -19.19513355	          1.46832516	          0.87883871	         -0.70386180	         42.92297502	         -9.36890253	        -10.14480130	         -1.41128142	         15.92565081	          8.57556568	
          1.12112730	        -19.19523859	          1.48570331	          0.87632451	         -1.50306439	         43.17856957	        -10.13118127	         -9.79786323	         -2.53787523	         15.67777886	          8.66557571	
          1.13256737	        -19.17124657	          1.50343889	          0.87345450	         -2.13854007	         43.40408864	        -11.23341078	         -9.73705148	         -3.90745765	         15.35732586	          8.76513561	
          1.14400745	        -19.12388873	          1.52152990	          0.87032355	         -2.52871835	         43.57607979	        -12.43725114	        -10.02870341	         -5.65775619	         14.95757689	          8.87280491	
          1.15544752	        -19.04976737	          1.54029594	          0.86725696	         -2.83077359	         43.63301077	        -13.85971986	        -10.79606448	         -7.66593695	         14.46475308	          9.01959472	
          1.16688759	        -18.95470834	          1.55969090	          0.86435129	         -3.00572418	         43.44916862	        -15.50557063	        -12.21299748	        -10.04483943	         13.87433463	          9.20941405	
          1.17832767	        -18.85918026	          1.57928464	          0.86205779	         -3.04319108	         43.11343665	        -17.30409257	        -14.05229995	        -12.66003112	         13.23649000	          9.41797309	
